# This file uses centimeters as units for non-parametric coordinates.

mtllib suelo.mtl
g default
v 135.896334 -0.054073 -36.060245
v 131.325930 -0.054073 -33.233752
v 131.325930 -0.054072 -32.800876
v 135.896334 -0.054072 -32.800876
v 131.325930 -0.387326 -32.800876
v 135.896334 -0.387326 -32.800876
v 131.325930 -0.387326 -33.233752
v 135.896334 -0.387326 -36.060245
v 131.325930 -0.054072 -21.647708
v 131.325930 -0.387326 -21.647708
v 135.896334 -0.387326 -21.647708
v 135.896334 -0.054072 -21.647708
v 131.325930 -0.054072 -32.061099
v 135.896334 -0.054072 -32.061099
v 132.047396 -0.054072 -31.659640
v 135.174868 -0.054072 -31.659640
v 132.047396 -0.054072 -31.266620
v 135.174868 -0.054072 -31.266620
v 132.526080 -0.054072 -30.927005
v 134.696185 -0.054072 -30.927005
v 118.034564 -0.054072 -32.800876
v 118.034564 -0.054072 -21.647708
v 118.034564 -0.387326 -21.647708
v 118.034564 -0.387326 -32.800876
v 118.034564 -0.387326 -33.233752
v 118.034564 -0.054073 -33.233752
v 131.325930 -0.054072 -29.886935
v 135.896334 -0.054072 -29.886935
v 134.753726 -0.054072 -30.369723
v 135.896334 -0.054072 -30.369723
v 134.753726 -0.054072 -32.800876
v 134.753726 -0.054072 -29.886935
v 132.468539 -0.054072 -30.369723
v 132.468539 -0.054072 -32.800876
v 131.325930 -0.054072 -30.369723
v 132.468539 -0.054072 -29.886935
v 132.468539 -0.054072 -21.647708
v 134.753726 -0.054072 -21.647708
v 135.896334 -0.220525 -32.800876
v 135.896334 -0.220526 -36.060245
v 131.325930 -0.220526 -33.233752
v 118.034564 -0.220526 -33.233752
v 135.896334 -0.241332 -21.647708
v 133.611132 -0.051306 -36.060245
v 133.611132 -0.220526 -36.060245
v 131.325930 -0.054072 -32.430987
v 135.896334 -0.054072 -32.430987
v 131.686648 -0.054072 -31.860370
v 135.535616 -0.054072 -31.860370
v 132.047396 -0.054072 -31.463122
v 135.174868 -0.054072 -31.463122
v 132.286730 -0.054072 -31.096805
v 134.935534 -0.054072 -31.096805
v 133.611132 -0.054072 -30.927005
v 135.896334 -0.387326 -10.494540
v 131.325930 -0.387326 -10.494540
v 131.325930 -0.387326 -10.061679
v 135.896334 -0.387326 -7.590350
v 135.896334 -0.054072 -10.494540
v 135.896334 -0.054073 -7.590350
v 135.896334 -0.220525 -10.494540
v 135.896334 -0.220526 -7.590350
v 134.753726 -0.054072 -13.408481
v 135.896334 -0.054072 -13.408481
v 135.896334 -0.054072 -12.925708
v 134.753726 -0.054072 -12.925708
v 131.325930 -0.054073 -10.061679
v 118.034564 -0.054073 -10.061679
v 131.325930 -0.220526 -10.061679
v 118.034564 -0.220526 -10.061679
v 118.034564 -0.387326 -10.494540
v 118.034564 -0.387326 -10.061679
v 131.325930 -0.054072 -13.408481
v 131.325930 -0.054072 -12.925708
v 131.325930 -0.054072 -10.494540
v 118.034564 -0.054072 -10.494540
v 132.468539 -0.054072 -10.494540
v 134.753726 -0.054072 -10.494540
v 135.896334 -0.054072 -10.864429
v 135.896334 -0.054072 -11.234317
v 131.325930 -0.054072 -11.234317
v 131.325930 -0.054072 -10.864429
v 135.535616 -0.054072 -11.435046
v 135.174868 -0.054072 -11.635776
v 132.047396 -0.054072 -11.635776
v 131.686648 -0.054072 -11.435046
v 135.174868 -0.054072 -11.832294
v 135.174868 -0.054072 -12.028812
v 132.047396 -0.054072 -12.028812
v 132.047396 -0.054072 -11.832294
v 134.935534 -0.054072 -12.198611
v 134.696185 -0.054072 -12.368426
v 133.611132 -0.054072 -12.368426
v 132.526080 -0.054072 -12.368426
v 132.286730 -0.054072 -12.198611
v 132.468539 -0.054072 -13.408481
v 132.468539 -0.054072 -12.925708
v 133.611132 -0.220526 -7.590350
v 133.611132 -0.051306 -7.590350
vt 0.607283 1.000000
vt 0.607283 0.750000
vt 0.625000 0.750000
vt 0.625000 1.000000
vt 0.625000 1.000000
vt 0.000000 0.000000
vt 0.607283 1.000000
vt 0.623893 0.859375
vt 0.485511 1.000000
vt 0.485511 0.750000
vt 0.485511 1.000000
vt 0.485708 0.468750
vt 0.546397 0.500000
vt 0.576840 0.250000
vt 0.546495 0.328125
vt 0.625000 0.750000
vt 0.625000 0.890625
vt 0.625000 0.750000
vt 0.625000 0.750000
vt 0.607283 0.750000
vt 0.625000 0.750000
vt 0.485511 0.750000
vt 0.546397 0.750000
vt 0.576840 0.750000
vt 0.606437 0.612847
vt 0.607283 0.750000
vt 0.485511 0.750000
vt 0.485511 0.750000
vt 0.607283 0.562500
vt 0.607283 0.187500
vt 0.606774 0.152500
vt 0.607283 0.000000
vt 0.607283 0.125000
vt 0.607283 0.625000
vt 0.607283 0.750000
vt 0.607283 0.000000
vt 0.607283 0.125000
vt 0.607283 0.625000
vt 0.607283 0.750000
vt 0.607283 0.000000
vt 0.607283 0.125000
vt 0.607283 0.625000
vt 0.607283 0.750000
vt 0.607283 0.000000
vt 0.607283 0.131944
vt 0.607283 0.375000
vt 0.607283 0.618056
vt 0.607283 0.750000
vt 0.121378 0.250000
vt 0.364330 0.406250
vt 0.303641 0.375000
vt 0.000000 0.000000
vt 0.485806 0.484375
vt 0.455462 0.562500
vt 0.364133 0.750000
vt 0.485511 1.000000
vt 0.625000 0.875000
vt 0.576840 1.000000
vt 0.546397 1.000000
vt 0.625000 0.875000
vt 0.607283 1.000000
vt 0.625000 1.000000
vt 0.625000 0.750000
vt 0.607283 0.750000
vt 0.625000 1.000000
vt 0.623893 0.859375
vt 0.607283 1.000000
vt 0.000000 0.000000
vt 0.485511 1.000000
vt 0.485511 0.750000
vt 0.485511 1.000000
vt 0.485708 0.468750
vt 0.546495 0.328125
vt 0.576840 0.250000
vt 0.546397 0.500000
vt 0.625000 0.750000
vt 0.625000 0.750000
vt 0.625000 0.750000
vt 0.625000 0.890625
vt 0.625000 0.750000
vt 0.607283 0.750000
vt 0.485511 0.750000
vt 0.485511 0.750000
vt 0.607283 0.750000
vt 0.606437 0.612847
vt 0.576840 0.750000
vt 0.546397 0.750000
vt 0.485511 0.750000
vt 0.607283 0.750000
vt 0.607283 0.625000
vt 0.607283 0.125000
vt 0.607283 0.000000
vt 0.606774 0.152500
vt 0.607283 0.187500
vt 0.607283 0.562500
vt 0.607283 0.750000
vt 0.607283 0.625000
vt 0.607283 0.125000
vt 0.607283 0.000000
vt 0.607283 0.750000
vt 0.607283 0.625000
vt 0.607283 0.125000
vt 0.607283 0.000000
vt 0.607283 0.750000
vt 0.607283 0.618056
vt 0.607283 0.375000
vt 0.607283 0.131944
vt 0.607283 0.000000
vt 0.121378 0.250000
vt 0.000000 0.000000
vt 0.303641 0.375000
vt 0.364330 0.406250
vt 0.485806 0.484375
vt 0.455462 0.562500
vt 0.364133 0.750000
vt 0.485511 1.000000
vt 0.625000 0.875000
vt 0.546397 1.000000
vt 0.576840 1.000000
vt 0.625000 0.875000
vn 0.038482 -0.999259 0.000000
vn 0.000000 -1.000000 0.000000
vn -0.022867 -0.989240 -0.144506
vn 0.008275 -0.996142 -0.087368
vn 1.000000 0.000000 0.000000
vn 0.972421 -0.233232 0.000000
vn 1.000000 0.000000 0.000000
vn 0.176571 -0.927628 -0.329134
vn 0.034200 -0.999415 0.000000
vn 0.000000 -1.000000 0.000000
vn 1.000000 0.000000 0.000000
vn 0.000000 1.000000 -0.000000
vn 0.368065 0.929800 0.000000
vn 0.764207 0.644971 0.000000
vn 0.000000 1.000000 -0.000000
vn -0.179838 0.000000 -0.983696
vn -0.145243 -0.495926 -0.856132
vn 0.000000 0.000000 -1.000000
vn 0.000000 0.000000 -1.000000
vn 0.000000 -1.000000 0.000000
vn 0.000000 -0.933122 -0.359560
vn -0.000000 1.000000 -0.000000
vn -0.000000 1.000000 -0.000000
vn -0.000000 1.000000 -0.000000
vn -0.000000 1.000000 0.000000
vn -0.000000 1.000000 -0.000000
vn -0.000000 1.000000 -0.000000
vn 0.000000 -1.000000 0.000000
vn -0.000000 1.000000 0.000000
vn -0.000000 1.000000 0.000000
vn -0.000000 -1.000000 0.000000
vn -0.000000 -1.000000 0.000000
vn -0.000000 -1.000000 0.000000
vn -0.000000 -1.000000 0.000000
vn 0.000000 -1.000000 -0.000000
vn 0.000000 -1.000000 -0.000000
vn 0.000000 -1.000000 -0.000000
vn 0.000000 -1.000000 -0.000000
vn 0.000000 -1.000000 0.000000
vn -0.000000 -1.000000 0.000000
vn -0.000000 -1.000000 0.000000
vn 0.000000 -1.000000 0.000000
vn -0.000000 -1.000000 0.000000
vn -0.000000 -1.000000 0.000000
vn -0.000000 -1.000000 0.000000
vn -0.000000 -1.000000 0.000000
vn -0.000000 -1.000000 0.000000
vn 0.000000 1.000000 -0.000000
vn 0.000000 1.000000 -0.000000
vn 0.000000 1.000000 -0.000000
vn 0.000000 1.000000 -0.000000
vn 0.205072 0.978747 0.000000
vn -0.224686 -0.904168 -0.363314
vn -0.526032 0.000000 -0.850465
vn 0.000000 0.000000 -1.000000
vn 0.038006 -0.999278 0.000000
vn 0.008936 -0.995498 0.094356
vn -0.021867 -0.987189 0.158048
vn 0.000000 -1.000000 0.000000
vn 1.000000 0.000000 0.000000
vn 0.179366 -0.911583 0.369923
vn 1.000000 0.000002 0.000000
vn 0.971138 -0.238519 -0.000000
vn 0.034200 -0.999415 0.000000
vn 0.000000 -1.000000 0.000000
vn 1.000000 0.000002 0.000000
vn 0.000000 1.000000 -0.000000
vn 0.000000 1.000000 -0.000000
vn 0.764205 0.644973 0.000000
vn 0.368065 0.929800 0.000000
vn -0.157848 0.000000 0.987464
vn -0.000000 0.000000 1.000000
vn -0.000000 0.000000 1.000000
vn -0.131185 -0.447925 0.884395
vn -0.000000 -0.933118 0.359571
vn 0.000000 -1.000000 0.000000
vn -0.000000 1.000000 -0.000000
vn -0.000000 1.000000 -0.000000
vn -0.000000 1.000000 -0.000000
vn -0.000000 1.000000 -0.000000
vn -0.000000 1.000000 -0.000000
vn -0.000000 1.000000 -0.000000
vn 0.000000 -1.000000 0.000000
vn 0.000000 -1.000000 -0.000000
vn 0.000000 -1.000000 -0.000000
vn 0.000000 -1.000000 -0.000000
vn 0.000000 -1.000000 -0.000000
vn 0.000000 1.000000 -0.000000
vn 0.000000 1.000000 -0.000000
vn -0.000000 -1.000000 0.000000
vn -0.000000 -1.000000 0.000000
vn -0.000000 -1.000000 0.000000
vn -0.000000 -1.000000 0.000000
vn 0.000000 -1.000000 0.000000
vn 0.000000 -1.000000 0.000000
vn 0.000000 -1.000000 0.000000
vn 0.000000 -1.000000 0.000000
vn 0.000000 -1.000000 0.000000
vn 0.000000 -1.000000 0.000000
vn 0.000000 -1.000000 0.000000
vn 0.000000 -1.000000 0.000000
vn 0.000000 -1.000000 0.000000
vn 0.000000 1.000000 -0.000000
vn 0.000000 1.000000 -0.000000
vn 0.000000 1.000000 -0.000000
vn 0.000000 1.000000 -0.000000
vn 0.205071 0.978747 0.000000
vn -0.218198 -0.888568 0.403530
vn -0.475688 0.000000 0.879614
vn -0.000002 0.000000 1.000000
s 1
g polySurface1165 polySurface1161
usemtl initialShadingGroup
f 6/1/1 5/2/2 7/3/3 8/4/4
f 1/5/5 4/6/6 39/7/7 40/8/8
f 11/9/9 10/10/10 5/2/2 6/1/1
f 39/7/7 43/11/11 11/9/9 6/1/1
f 32/12/12 28/13/13 30/14/14 29/15/15
f 2/16/16 41/17/17 42/18/18 26/19/19
f 7/3/3 5/2/2 24/20/20 25/21/21
f 9/22/22 27/23/23 35/24/24 3/25/25 21/26/26 22/27/27
f 5/2/2 10/10/10 23/28/28 24/20/20
f 3/25/25 34/29/29 31/30/30 4/31/6 47/32/31 14/33/32 13/34/33 46/35/34
f 13/34/33 14/33/32 49/36/35 16/37/36 15/38/37 48/39/38
f 15/38/37 16/37/36 51/40/39 18/41/40 17/42/41 50/43/42
f 17/42/41 18/41/40 53/44/43 20/45/44 54/46/45 19/47/46 52/48/47
f 37/49/48 36/50/49 27/51/23 9/52/22
f 30/14/14 4/31/6 31/30/30 29/15/15
f 29/15/15 31/30/30 34/29/29 33/53/50
f 32/12/12 29/15/15 33/53/50 36/50/49
f 34/29/29 3/25/25 35/54/24 33/53/50
f 35/54/24 27/51/23 36/50/49 33/53/50
f 38/55/51 32/12/12 36/50/49 37/49/48
f 38/55/51 12/56/52 28/13/13 32/12/12
f 40/8/8 39/7/7 6/1/1 8/4/4
f 41/17/17 45/57/53 40/8/8 8/4/4 7/3/3
f 42/18/18 41/17/17 7/3/3 25/21/21
f 4/6/6 30/58/14 28/59/13 12/56/52 43/11/11 39/7/7
f 44/60/54 1/5/55 40/8/8 45/57/53
f 44/60/54 45/57/53 41/17/17 2/16/16
s 6
f 55/61/56 58/62/57 57/63/58 56/64/59
f 60/65/60 62/66/61 61/67/62 59/68/63
f 11/69/64 55/61/56 56/64/59 10/70/65
f 61/67/62 55/61/56 11/69/64 43/71/66
f 63/72/67 66/73/68 65/74/69 64/75/70
f 67/76/71 68/77/72 70/78/73 69/79/74
f 57/63/58 72/80/75 71/81/76 56/64/59
f 9/82/77 22/83/78 76/84/79 75/85/80 74/86/81 73/87/82
f 56/64/59 71/81/76 23/88/83 10/70/65
f 75/85/80 82/89/84 81/90/85 80/91/86 79/92/87 59/93/63 78/94/88 77/95/89
f 81/90/85 86/96/90 85/97/91 84/98/92 83/99/93 80/91/86
f 85/97/91 90/100/94 89/101/95 88/102/96 87/103/97 84/98/92
f 89/101/95 95/104/98 94/105/99 93/106/100 92/107/101 91/108/102 88/102/96
f 37/109/103 9/110/77 73/111/82 96/112/104
f 65/74/69 66/73/68 78/94/88 59/93/63
f 66/73/68 97/113/105 77/95/89 78/94/88
f 63/72/67 96/112/104 97/113/105 66/73/68
f 77/95/89 97/113/105 74/114/81 75/85/80
f 74/114/81 97/113/105 96/112/104 73/111/82
f 38/115/106 37/109/103 96/112/104 63/72/67
f 38/115/106 63/72/67 64/75/70 12/116/107
f 62/66/61 58/62/57 55/61/56 61/67/62
f 69/79/74 57/63/58 58/62/57 62/66/61 98/117/108
f 70/78/73 72/80/75 57/63/58 69/79/74
f 59/68/63 61/67/62 43/71/66 12/116/107 64/118/70 65/119/69
f 99/120/109 98/117/108 62/66/61 60/65/110
f 99/120/109 67/76/71 69/79/74 98/117/108
