# This file uses centimeters as units for non-parametric coordinates.

mtllib suelo.mtl
g default
v 111.055853 -0.028593 212.798373
v 159.389238 -0.000000 260.466094
v 186.776888 -0.028591 137.688109
v 235.110307 0.000000 185.355805
v 170.555265 -0.028593 150.374648
v 220.614601 0.000000 199.734586
v 151.594637 -0.028593 169.206969
v 201.361121 0.000000 218.832765
vt 0.000000 0.000000
vt 0.675929 0.000000
vt 0.000000 1.000000
vt 0.675929 1.000000
vt 0.000000 0.808564
vt 0.675929 0.808564
vt 0.000000 0.554296
vt 0.675929 0.554296
vn -0.000282 1.000000 -0.000298
vn -0.000281 1.000000 -0.000298
vn -0.000274 1.000000 -0.000311
vn -0.000274 1.000000 -0.000311
vn -0.000294 1.000000 -0.000288
vn -0.000294 1.000000 -0.000288
vn -0.000297 1.000000 -0.000288
vn -0.000297 1.000000 -0.000288
s 1
g pPlane1
usemtl initialShadingGroup
f 5/5/1 6/6/2 4/4/3 3/3/4
f 7/7/5 8/8/6 6/6/2 5/5/1
f 1/1/7 2/2/8 8/8/6 7/7/5
