# This file uses centimeters as units for non-parametric coordinates.

mtllib suelo.mtl
g default
v 42.579349 -0.028593 -297.556823
v 111.958023 -0.028593 -297.556823
v 42.579349 0.000000 -330.877441
v 111.958023 0.000000 -330.877441
v 65.811775 -0.028593 -297.556823
v 65.811775 0.000000 -330.877441
v 87.106460 -0.028593 -297.556823
v 87.106460 0.000000 -330.877441
v 65.956966 -0.028593 -295.895107
v 87.000579 -0.028593 -295.913661
vt 0.000000 0.000000
vt 1.000000 0.000000
vt 0.000000 0.471436
vt 1.000000 0.471436
vt 0.334864 0.000000
vt 0.334864 0.471436
vt 0.641798 0.000000
vt 0.641798 0.471436
vt 0.000000 0.000000
vt 1.000000 0.000000
vt 1.000000 1.000000
vt 0.000000 1.000000
vn 0.000000 1.000000 0.000858
vn 0.000000 1.000000 0.000839
vn 0.000000 1.000000 0.000858
vn 0.000000 1.000000 0.000858
vn 0.000000 1.000000 0.000840
vn 0.000000 1.000000 0.000858
vn 0.000000 1.000000 0.000858
vn 0.000000 1.000000 0.000858
vn 0.000000 1.000000 0.000000
vn 0.000000 1.000000 0.000000
s 1
g pPlane1
usemtl initialShadingGroup
f 1/1/1 5/5/2 6/6/3 3/3/4
f 5/5/2 7/7/5 8/8/6 6/6/3
f 7/7/5 2/2/7 4/4/8 8/8/6
f 7/9/5 5/10/2 9/11/9 10/12/10
