# This file uses centimeters as units for non-parametric coordinates.

mtllib suelo.mtl
g default
v 171.708145 11.259068 95.290825
v 171.114501 11.259068 95.290825
v 171.114501 -0.047234 96.768791
v 171.708145 -0.047234 96.768791
v 171.708145 3.471987 98.224892
v 171.114501 3.471987 98.224892
v 171.708145 8.164628 96.456764
v 171.114501 8.164628 96.456764
v 171.708145 3.471987 91.221352
v 171.708145 7.824694 88.227700
v 171.114502 7.824694 88.227700
v 171.114502 3.471987 91.221352
v 171.114502 -0.047234 89.799858
v 171.708145 -0.047234 89.799858
v 171.708145 11.259068 89.783715
v 171.114502 11.259068 89.783715
v 171.708145 -0.047234 90.206002
v 171.708145 3.471987 91.629509
v 171.708145 7.844504 88.707283
v 171.708145 11.259068 90.104668
v 171.114502 11.259068 90.104668
v 171.114502 7.844504 88.707283
v 171.114502 3.471987 91.629509
v 171.114502 -0.047234 90.206002
v 171.912465 -0.047234 90.206002
v 171.912465 -0.047234 89.799858
v 171.912465 3.471987 91.221352
v 171.912465 3.471987 91.629509
v 171.912465 7.844504 88.707283
v 171.912465 7.824694 88.227700
v 171.912465 11.259068 90.104668
v 171.912465 11.259068 89.783715
v 170.910181 11.259068 90.104668
v 170.910181 7.844504 88.707283
v 170.910181 11.259068 89.783715
v 170.910181 7.824694 88.227700
v 170.910181 3.471987 91.629509
v 170.910181 3.471987 91.221352
v 170.910181 -0.047234 89.799858
v 170.910181 -0.047234 90.206002
vt 0.291667 0.200327
vt 0.291667 0.125000
vt 0.485716 0.125000
vt 0.462329 0.223715
vt 0.308770 0.300764
vt 0.533664 0.253989
vt 0.480003 0.125000
vt 0.208333 0.125000
vt 0.000000 0.086037
vt 0.000000 0.000000
vt 0.579849 0.000000
vt 0.579849 0.636808
vt 0.000000 0.173366
vt 0.000000 0.000000
vt 1.000000 0.000000
vt 1.000000 0.173366
vt 1.000000 0.821884
vt 1.000000 0.000000
vt 1.000000 0.000000
vt 1.000000 0.807006
vt 0.000000 0.000000
vt 0.000000 0.000000
vt 0.000000 0.999824
vt 0.000000 1.000000
vt 0.375000 0.916667
vt 0.530240 0.489757
vt 0.402383 0.388100
vt 0.208333 0.000000
vt 0.291667 0.250000
vt 0.446907 0.288810
vt 0.962215 0.000000
vt 0.962215 1.000000
vt 0.375000 0.416667
vt 0.569050 0.339047
vt 0.000000 0.000000
vt 1.000000 0.000000
vt 1.000000 0.174845
vt 0.000000 0.174845
vt 0.000000 0.000000
vt 1.000000 0.000000
vt 1.000000 0.123583
vt 0.000000 0.123583
vt 0.000000 0.000000
vt 1.000000 0.000000
vt 1.000000 0.174032
vt 0.000000 0.174032
vt 0.530240 0.489757
vt 0.539847 0.463338
vt 0.497725 0.125000
vt 0.485716 0.125000
vt 0.462329 0.223715
vt 0.472890 0.225162
vt 0.446907 0.288810
vt 0.456514 0.291212
vt 0.000000 0.000000
vt 0.000000 0.999813
vt 0.533664 0.253989
vt 0.569050 0.339047
vt 0.581059 0.334243
vt 0.547582 0.251094
vt 0.480003 0.125000
vt 0.496815 0.125000
vt 0.414392 0.412117
vt 0.402383 0.388100
vt 1.000000 0.000000
vt 1.000000 0.806085
vt 0.539847 0.463338
vt 0.497725 0.125000
vt 0.472890 0.225162
vt 0.456514 0.291212
vt 0.581059 0.334243
vt 0.547582 0.251094
vt 0.496815 0.125000
vt 0.414392 0.412117
vn 1.000000 0.000000 0.000000
vn 1.000000 0.000000 0.000000
vn 1.000000 0.000000 0.000000
vn 1.000000 0.000000 0.000000
vn -1.000000 -0.000000 -0.000000
vn -1.000000 -0.000000 -0.000000
vn -1.000000 -0.000000 -0.000000
vn -1.000000 -0.000000 -0.000000
vn -0.000000 0.352591 0.935778
vn -0.000000 0.352591 0.935778
vn -0.000000 0.352589 0.935778
vn -0.000000 0.352589 0.935778
vn -0.000000 -0.382325 0.924028
vn -0.000000 -0.382325 0.924028
vn -0.000000 -0.382325 0.924028
vn -0.000000 -0.382325 0.924028
vn 0.000000 -1.000000 0.000000
vn 0.000000 -1.000000 0.000000
vn 0.000000 -1.000000 0.000000
vn 0.000000 -1.000000 0.000000
vn 0.000000 1.000000 0.000000
vn 0.000000 1.000000 0.000000
vn 0.000000 1.000000 0.000000
vn 0.000000 1.000000 0.000000
vn 1.000000 0.000000 0.000000
vn 1.000000 0.000000 0.000000
vn -1.000000 0.000000 -0.000000
vn -1.000000 0.000000 -0.000000
vn 1.000000 0.000000 0.000000
vn 1.000000 0.000000 0.000000
vn -0.000000 0.352585 0.935780
vn -0.000000 0.352585 0.935780
vn -1.000000 0.000000 -0.000000
vn -1.000000 0.000000 -0.000000
vn 0.000000 0.412690 -0.910872
vn 0.000000 0.412690 -0.910872
vn 0.000000 0.412690 -0.910872
vn 0.000000 0.412690 -0.910872
vn 0.000000 -0.566679 -0.823939
vn 0.000000 -0.566679 -0.823939
vn 0.000000 -0.566678 -0.823939
vn 0.000000 -0.566678 -0.823939
vn 0.000000 0.374523 -0.927218
vn 0.000000 0.374523 -0.927218
vn 0.000000 0.374523 -0.927218
vn 0.000000 0.374523 -0.927218
vn 1.000000 0.000000 0.000000
vn 1.000000 0.000000 0.000000
vn 1.000000 0.000000 -0.000000
vn 1.000000 0.000000 -0.000000
vn 1.000000 0.000000 -0.000000
vn 1.000000 0.000000 -0.000000
vn 1.000000 0.000000 -0.000001
vn 1.000000 0.000000 -0.000001
vn 0.000000 1.000000 0.000000
vn 0.000000 1.000000 0.000000
vn -1.000000 0.000000 -0.000000
vn -1.000000 0.000000 -0.000001
vn -1.000000 0.000000 -0.000001
vn -1.000000 0.000000 -0.000000
vn -1.000000 0.000000 -0.000000
vn -1.000000 0.000000 -0.000000
vn -1.000000 0.000000 -0.000000
vn -1.000000 0.000000 -0.000000
vn 0.000000 -1.000000 0.000000
vn 0.000000 -1.000000 0.000000
vn 0.000000 -1.000000 0.000000
vn 0.000000 -1.000000 0.000000
vn 0.000000 0.374524 -0.927217
vn 0.000000 0.374524 -0.927217
vn -0.000000 -0.374981 0.927033
vn -0.000000 -0.374981 0.927033
vn -0.000000 -0.374981 0.927033
vn -0.000000 -0.374981 0.927033
vn -0.000000 0.555649 0.831417
vn -0.000000 0.555649 0.831417
vn -0.000000 0.555649 0.831417
vn -0.000000 0.555649 0.831417
vn 0.000000 -0.566680 -0.823938
vn 0.000000 -0.566680 -0.823938
vn -0.000000 -0.378754 0.925497
vn -0.000000 -0.378754 0.925497
vn -0.000000 -0.378754 0.925497
vn -0.000000 -0.378754 0.925497
vn 0.000000 0.412689 -0.910872
vn 0.000000 0.412689 -0.910872
vn 0.000000 1.000000 0.000000
vn 0.000000 1.000000 0.000000
vn -0.000000 -0.378754 0.925497
vn -0.000000 -0.378754 0.925497
vn -0.000000 -0.378754 0.925497
vn -0.000000 -0.378754 0.925497
vn 0.000000 1.000000 0.000000
vn 0.000000 1.000000 0.000000
vn 0.000000 0.412689 -0.910872
vn 0.000000 0.412689 -0.910872
vn -0.000000 0.555649 0.831417
vn -0.000000 0.555649 0.831417
vn -0.000000 0.555649 0.831417
vn -0.000000 0.555649 0.831417
vn 0.000000 -0.566678 -0.823939
vn 0.000000 -0.566678 -0.823939
vn 0.000000 0.374523 -0.927218
vn 0.000000 0.374523 -0.927218
vn 0.000000 -1.000000 0.000000
vn 0.000000 -1.000000 0.000000
vn -0.000000 -0.374980 0.927033
vn -0.000000 -0.374980 0.927033
vn -0.000000 -0.374980 0.927033
vn -0.000000 -0.374980 0.927033
s 1
g polySurface733 almacen1:polySurface149
usemtl initialShadingGroup
f 7/1/1 5/2/2 18/3/3 19/4/4
s 2
f 8/5/5 22/6/6 23/7/7 6/8/8
s 3
f 6/9/9 5/10/10 7/11/11 8/12/12
s off
f 3/13/13 4/14/14 5/15/15 6/16/16
s 4
f 4/17/17 3/18/18 24/19/19 17/20/20
s 5
f 1/21/21 20/22/22 21/23/23 2/24/24
s 1
f 4/25/25 17/26/26 18/3/3 5/2/2
s 2
f 23/7/7 24/27/27 3/28/28 6/8/8
s 1
f 1/29/29 7/1/1 19/4/4 20/30/30
s 3
f 8/12/12 7/11/11 1/31/31 2/32/32
s 2
f 2/33/33 21/34/34 22/6/6 8/5/5
s 6
f 15/35/35 10/36/36 11/37/37 16/38/38
s 7
f 10/39/39 9/40/40 12/41/41 11/42/42
s 8
f 9/43/43 14/44/44 13/45/45 12/46/46
s 9
f 25/47/47 26/48/48 27/49/49 28/50/50
f 29/51/51 28/50/50 27/49/49 30/52/52
f 31/53/53 29/51/51 30/52/52 32/54/54
s 5
f 21/23/23 20/22/22 15/55/55 16/56/56
s 10
f 34/57/57 33/58/58 35/59/59 36/60/60
f 37/61/61 34/57/57 36/60/60 38/62/62
f 38/62/62 39/63/63 40/64/64 37/61/61
s 4
f 17/20/20 24/19/19 13/65/65 14/66/66
f 17/26/20 14/67/66 26/48/67 25/47/68
s 8
f 14/67/44 9/68/43 27/49/69 26/48/70
s off
f 18/3/71 17/26/72 25/47/73 28/50/74
f 19/4/75 18/3/76 28/50/77 29/51/78
s 7
f 9/68/40 10/69/39 30/52/79 27/49/80
s off
f 20/30/81 19/4/82 29/51/83 31/53/84
s 6
f 10/69/36 15/70/35 32/54/85 30/52/86
s 5
f 15/70/55 20/30/22 31/53/87 32/54/88
s off
f 22/6/89 21/34/90 33/58/91 34/57/92
s 5
f 21/34/23 16/71/56 35/59/93 33/58/94
s 6
f 16/71/38 11/72/37 36/60/95 35/59/96
s off
f 23/7/97 22/6/98 34/57/99 37/61/100
s 7
f 11/72/42 12/73/41 38/62/101 36/60/102
s 8
f 12/73/46 13/74/45 39/63/103 38/62/104
s 4
f 13/74/65 24/27/19 40/64/105 39/63/106
s off
f 24/27/107 23/7/108 37/61/109 40/64/110
g default
v 171.114501 -0.047234 82.677056
v 171.114501 3.471987 81.220955
v 171.708145 3.471987 81.220955
v 171.708145 -0.047234 82.677056
v 171.708145 11.259068 84.155022
v 171.114501 11.259068 84.155022
v 171.708145 -0.047234 89.799858
v 171.708145 3.471987 91.221352
v 171.708145 11.259068 89.783715
v 171.114501 11.259068 89.783715
v 171.114501 3.471987 91.221352
v 171.114501 -0.047234 89.799858
v 171.708145 7.824694 88.227700
v 171.114501 7.824694 88.227700
v 171.114501 8.164628 82.989083
v 171.708145 8.164628 82.989083
v 171.708145 -0.047234 89.401543
v 171.708145 3.471988 90.811379
v 171.708145 7.846529 87.764321
v 171.708145 11.259068 89.422158
v 171.114501 11.259068 89.422158
v 171.114501 7.846529 87.758278
v 171.114501 3.471987 90.850807
v 171.114501 -0.047234 89.401543
v 171.914934 -0.047234 89.799858
v 171.914934 -0.047234 89.401543
v 171.914934 3.471988 90.811379
v 171.914934 3.471987 91.221352
v 171.914934 7.846529 87.764321
v 171.914934 7.824694 88.227700
v 171.914934 11.259068 89.783715
v 171.914934 11.259068 89.422158
v 170.907712 7.824694 88.227700
v 170.907712 3.471987 91.221352
v 170.907712 7.846529 87.758278
v 170.907712 3.471987 90.850807
v 170.907712 -0.047234 89.799858
v 170.907712 -0.047234 89.401543
v 170.907712 11.259068 89.783715
v 170.907712 11.259068 89.422158
vt 0.000000 0.173366
vt 0.000000 0.000000
vt 1.000000 0.000000
vt 1.000000 0.173366
vt 0.000000 0.086037
vt 0.000000 0.000000
vt 0.579849 0.000000
vt 0.579849 0.636808
vt 0.539847 0.463338
vt 0.550669 0.433576
vt 0.511253 0.125000
vt 0.497725 0.125000
vt 0.484788 0.226793
vt 0.472890 0.225162
vt 0.000000 0.999813
vt 0.000000 0.000000
vt 0.000000 0.000000
vt 0.000000 0.999801
vt 0.496815 0.125000
vt 0.547582 0.251094
vt 0.563260 0.247833
vt 0.515755 0.125000
vt 0.427920 0.439174
vt 0.414392 0.412117
vt 1.000000 0.806085
vt 1.000000 0.000000
vt 1.000000 0.000000
vt 1.000000 0.805048
vt 0.581059 0.334243
vt 0.594587 0.328832
vt 0.962215 0.000000
vt 0.962215 1.000000
vt 0.456514 0.291212
vt 0.467336 0.293917
vt 0.000000 0.000000
vt 1.000000 0.000000
vt 1.000000 0.174845
vt 0.000000 0.174845
vt 0.000000 0.000000
vt 1.000000 0.000000
vt 1.000000 0.123583
vt 0.000000 0.123583
vt 0.000000 0.000000
vt 1.000000 0.000000
vt 1.000000 0.174032
vt 0.000000 0.174032
vt 0.550669 0.433576
vt 0.708333 0.000000
vt 0.708333 0.125000
vt 0.511253 0.125000
vt 0.658115 0.250546
vt 0.484788 0.226793
vt 0.467336 0.293917
vt 0.625000 0.333333
vt 0.000000 0.000000
vt 0.000000 0.999622
vt 0.791667 0.200327
vt 0.563260 0.247833
vt 0.594587 0.328832
vt 0.791667 0.250000
vt 0.515755 0.125000
vt 0.791667 0.125000
vt 0.625000 0.833333
vt 0.427920 0.439174
vt 1.000000 0.000000
vt 1.000000 0.789938
vt 0.539847 0.463338
vt 0.497725 0.125000
vt 0.472890 0.225162
vt 0.496815 0.125000
vt 0.547582 0.251094
vt 0.547582 0.251094
vt 0.496815 0.125000
vt 0.563260 0.247833
vt 0.515755 0.125000
vt 0.515755 0.125000
vt 0.563260 0.247833
vt 0.427920 0.439174
vt 0.414392 0.412117
vt 0.414392 0.412117
vt 0.427920 0.439174
vt 0.414392 0.412117
vt 0.496815 0.125000
vt 0.496815 0.125000
vt 0.414392 0.412117
vt 0.515755 0.125000
vt 0.427920 0.439174
vt 0.427920 0.439174
vt 0.515755 0.125000
vt 0.547582 0.251094
vt 0.581059 0.334243
vt 0.581059 0.334243
vt 0.547582 0.251094
vt 0.594587 0.328832
vt 0.594587 0.328832
vt 0.581059 0.334243
vt 0.594587 0.328832
vt 0.563260 0.247833
vt 0.563260 0.247833
vt 0.594587 0.328832
vt 0.456514 0.291212
vt 0.472890 0.225162
vt 0.472890 0.225162
vt 0.456514 0.291212
vt 0.484788 0.226793
vt 0.467336 0.293917
vt 0.467336 0.293917
vt 0.484788 0.226793
vt 0.467336 0.293917
vt 0.456514 0.291212
vt 0.456514 0.291212
vt 0.467336 0.293917
vn 0.000000 -0.382325 -0.924028
vn 0.000000 -0.382325 -0.924028
vn 0.000000 -0.382325 -0.924028
vn 0.000000 -0.382325 -0.924028
vn 0.000000 0.352589 -0.935778
vn 0.000000 0.352589 -0.935778
vn 0.000000 0.352589 -0.935778
vn 0.000000 0.352589 -0.935778
vn 1.000000 0.000000 0.000000
vn 1.000000 0.000000 0.000000
vn 1.000000 0.000000 0.000000
vn 1.000000 0.000000 0.000000
vn 1.000000 0.000000 0.000000
vn 1.000000 0.000000 0.000000
vn 0.000000 1.000000 0.000000
vn 0.000000 1.000000 0.000000
vn 0.000000 1.000000 0.000000
vn 0.000000 1.000000 0.000000
vn -1.000000 0.000000 0.000001
vn -1.000000 0.000000 0.000001
vn -1.000000 0.000000 0.000001
vn -1.000000 0.000000 0.000001
vn -1.000000 0.000000 -0.000000
vn -1.000000 0.000000 -0.000000
vn 0.000000 -1.000000 0.000000
vn 0.000000 -1.000000 0.000000
vn 0.000000 -1.000000 0.000000
vn 0.000000 -1.000000 0.000000
vn -1.000000 0.000000 -0.000000
vn -1.000000 0.000000 -0.000000
vn 0.000000 0.352588 -0.935779
vn 0.000000 0.352588 -0.935779
vn 1.000000 0.000000 0.000001
vn 1.000000 0.000000 0.000001
vn -0.000000 -0.412690 0.910872
vn -0.000000 -0.412690 0.910872
vn -0.000000 -0.412690 0.910872
vn -0.000000 -0.412690 0.910872
vn -0.000000 0.566678 0.823939
vn -0.000000 0.566678 0.823939
vn -0.000000 0.566678 0.823939
vn -0.000000 0.566678 0.823939
vn -0.000000 -0.374523 0.927218
vn -0.000000 -0.374523 0.927218
vn -0.000000 -0.374523 0.927218
vn -0.000000 -0.374523 0.927218
vn 1.000000 0.000000 0.000000
vn 1.000000 0.000000 0.000000
vn 1.000000 0.000000 0.000000
vn 1.000000 0.000000 0.000000
vn 1.000000 0.000000 0.000000
vn 1.000000 0.000000 0.000000
vn 1.000000 0.000000 0.000000
vn 1.000000 0.000000 0.000000
vn 0.000000 1.000000 0.000000
vn 0.000000 1.000000 0.000000
vn -1.000000 0.000000 -0.000000
vn -1.000000 0.000000 -0.000000
vn -1.000000 0.000000 -0.000000
vn -1.000000 0.000000 -0.000000
vn -1.000000 0.000000 -0.000000
vn -1.000000 0.000000 -0.000000
vn -1.000000 0.000000 -0.000000
vn -1.000000 0.000000 -0.000000
vn 0.000000 -1.000000 0.000000
vn 0.000000 -1.000000 0.000000
vn 0.000000 -1.000000 0.000000
vn 0.000000 -1.000000 0.000000
vn 0.000000 0.371879 -0.928281
vn 0.000000 0.371879 -0.928281
vn 0.000000 0.371879 -0.928281
vn 0.000000 0.371879 -0.928281
vn -0.000000 -0.374524 0.927217
vn -0.000000 -0.374524 0.927217
vn -0.000000 0.566678 0.823939
vn -0.000000 0.566678 0.823939
vn 0.000000 -0.571557 -0.820563
vn 0.000000 -0.571557 -0.820563
vn 0.000000 -0.571557 -0.820563
vn 0.000000 -0.571557 -0.820563
vn -0.000000 -0.412689 0.910872
vn -0.000000 -0.412689 0.910872
vn 0.000000 0.436969 -0.899477
vn 0.000000 0.436969 -0.899477
vn 0.000000 0.436969 -0.899477
vn 0.000000 0.436969 -0.899477
vn 0.000000 1.000000 0.000000
vn 0.000000 1.000000 0.000000
vn -0.000000 0.566678 0.823939
vn -0.000000 0.566678 0.823939
vn 0.000000 -0.577260 -0.816561
vn 0.000000 -0.577260 -0.816561
vn 0.000000 -0.577260 -0.816561
vn 0.000000 -0.577260 -0.816561
vn 0.000000 -1.000000 0.000000
vn 0.000000 -1.000000 0.000000
vn -0.000000 -0.374524 0.927217
vn -0.000000 -0.374524 0.927217
vn 0.000000 0.380791 -0.924661
vn 0.000000 0.380791 -0.924661
vn 0.000000 0.380791 -0.924661
vn 0.000000 0.380791 -0.924661
vn -0.000000 -0.412689 0.910872
vn -0.000000 -0.412689 0.910872
vn 0.000000 1.000000 0.000000
vn 0.000000 1.000000 0.000000
vn 0.000000 0.438262 -0.898848
vn 0.000000 0.438262 -0.898848
vn 0.000000 0.438262 -0.898848
vn 0.000000 0.438262 -0.898848
s off
g almacen1:polySurface149 polySurface734
usemtl initialShadingGroup
f 44/75/111 41/76/112 42/77/113 43/78/114
s 1
f 43/79/115 42/80/116 55/81/117 56/82/118
s 2
f 65/83/119 66/84/120 67/85/121 68/86/122
f 69/87/123 70/88/124 68/86/122 67/85/121
s 3
f 50/89/125 49/90/126 60/91/127 61/92/128
s 4
f 74/93/129 73/94/130 75/95/131 76/96/132
f 78/97/133 77/98/134 74/93/129 76/96/132
s 5
f 47/99/135 52/100/136 64/101/137 57/102/138
s 4
f 75/95/131 73/94/130 79/103/139 80/104/140
s 1
f 56/82/118 55/81/117 46/105/141 45/106/142
s 2
f 71/107/143 70/88/124 69/87/123 72/108/144
s 6
f 53/109/145 49/110/146 50/111/147 54/112/148
s 7
f 48/113/149 53/114/150 54/115/151 51/116/152
s 8
f 47/117/153 48/118/154 51/119/155 52/120/156
s 9
f 57/121/157 44/122/158 43/123/159 58/124/160
f 56/125/161 59/126/162 58/124/160 43/123/159
f 60/127/163 59/126/162 56/125/161 45/128/164
s 3
f 61/92/128 60/91/127 45/129/165 46/130/166
s 10
f 55/131/167 62/132/168 61/133/169 46/134/170
f 63/135/171 62/132/168 55/131/167 42/136/172
f 41/137/173 64/138/174 63/135/171 42/136/172
s 5
f 57/102/138 64/101/137 41/139/175 44/140/176
f 47/141/135 57/121/138 66/84/177 65/83/178
s off
f 57/121/179 58/124/180 67/85/181 66/84/182
s 8
f 48/142/154 47/141/153 65/83/183 68/86/184
s 7
f 53/143/150 48/142/149 68/86/185 70/88/186
s off
f 58/124/187 59/126/188 69/87/189 67/85/190
s 6
f 49/144/146 53/145/145 70/146/191 71/147/192
s off
f 59/148/193 60/149/194 72/150/195 69/151/196
s 3
f 60/152/127 49/153/126 71/154/197 72/155/198
s 7
f 51/156/152 54/157/151 73/158/199 74/159/200
s off
f 62/160/201 63/161/202 76/162/203 75/163/204
s 5
f 64/164/137 52/165/136 77/166/205 78/167/206
s 8
f 52/165/156 51/168/155 74/169/207 77/170/208
s off
f 63/171/209 64/172/210 78/173/211 76/174/212
s 6
f 54/175/148 50/176/147 79/177/213 73/178/214
s 3
f 50/179/125 61/180/128 80/181/215 79/182/216
s off
f 61/183/217 62/184/218 75/185/219 80/186/220
g default
v 208.781387 -0.000000 108.475609
v 208.781394 -0.000000 55.899468
v 175.460770 -0.028593 108.475609
v 175.460774 -0.028593 55.899468
v 175.460775 -0.028593 75.342369
v 208.781394 -0.000000 76.315438
v 175.460775 -0.028593 104.272942
v 208.781394 -0.000000 103.159569
v 169.002639 -0.028593 104.214287
v 168.865470 -0.028593 75.395226
vt 0.705731 0.000000
vt 1.000000 0.000000
vt 1.000000 0.546791
vt 0.705731 0.546791
vt 0.318809 0.000000
vt 0.318809 0.546791
vt 0.000000 0.000000
vt 0.000000 0.546791
vt 0.000000 0.000000
vt 1.000000 0.000000
vt 1.000000 1.000000
vt 0.000000 1.000000
vn -0.000858 1.000000 0.000000
vn -0.000858 1.000000 0.000000
vn -0.000858 1.000000 0.000000
vn -0.000768 1.000000 0.000000
vn -0.000858 1.000000 0.000000
vn -0.000730 1.000000 0.000000
vn -0.000858 1.000000 0.000000
vn -0.000858 1.000000 0.000000
vn 0.000000 1.000000 -0.000000
vn 0.000000 1.000000 -0.000000
s 1
g almacen1:polySurface149 polySurface808
usemtl initialShadingGroup
f 86/187/221 82/188/222 84/189/223 85/190/224
f 88/191/225 86/187/221 85/190/224 87/192/226
f 81/193/227 88/191/225 87/192/226 83/194/228
f 87/195/226 85/196/224 90/197/229 89/198/230
g default
v 208.781387 20.219383 108.475609
v 208.781394 20.219383 55.849251
v 175.460770 20.190790 108.475609
v 175.460774 20.190790 55.849251
v 175.460775 20.190790 75.545281
v 208.781394 20.219383 76.308342
v 175.460775 20.190790 104.119576
v 208.781394 20.219383 103.143303
v 169.051172 20.190790 104.060921
v 169.072410 20.190790 75.598137
vt 0.705731 0.000000
vt 1.000000 0.000000
vt 1.000000 0.546791
vt 0.705731 0.546791
vt 0.318809 0.000000
vt 0.318809 0.546791
vt 0.000000 0.000000
vt 0.000000 0.546791
vt 0.000000 0.000000
vt 1.000000 0.000000
vt 1.000000 1.000000
vt 0.000000 1.000000
vn -0.000858 1.000000 0.000000
vn -0.000858 1.000000 0.000000
vn -0.000858 1.000000 0.000000
vn -0.000770 1.000000 0.000000
vn -0.000858 1.000000 -0.000000
vn -0.000734 1.000000 -0.000000
vn -0.000858 1.000000 -0.000000
vn -0.000858 1.000000 -0.000000
vn -0.000000 1.000000 -0.000000
vn -0.000000 1.000000 -0.000000
s 1
g almacen1:polySurface149 polySurface809
usemtl initialShadingGroup
f 96/199/231 92/200/232 94/201/233 95/202/234
f 98/203/235 96/199/231 95/202/234 97/204/236
f 91/205/237 98/203/235 97/204/236 93/206/238
f 97/207/236 95/208/234 100/209/239 99/210/240
