# This file uses centimeters as units for non-parametric coordinates.

mtllib pared-4.mtl
g default
v 171.531357 15.656111 -102.156380
v 171.531357 15.696020 -102.156380
v 171.531357 20.219383 -99.885750
v 171.531357 18.061815 -99.885750
v 171.531357 18.012045 -99.933540
v 171.531357 4.141748 -102.156380
v 171.531357 15.696021 -102.078316
v 171.531357 15.656111 -102.078316
v 171.531357 20.219383 -99.807686
v 171.531357 18.061815 -99.807686
v 171.531357 18.012045 -99.855476
v 171.531357 4.141748 -102.078316
v 171.531357 4.108958 -102.122017
v 171.531357 15.696020 -85.208504
v 171.531357 15.656111 -85.208504
v 171.531357 1.976311 -99.885750
v 171.531357 20.219383 -85.208504
v 171.531357 18.061815 -85.208504
v 171.531357 18.012045 -85.208504
v 171.531357 4.141748 -85.208504
v 171.531357 4.108958 -102.043953
v 171.531357 1.976311 -99.807686
v 171.531357 1.946361 -99.885750
v 171.531357 4.108958 -85.208504
v 171.531357 1.976311 -85.208504
v 171.531357 1.946361 -99.807686
v 171.531357 -0.000000 -99.885750
v 171.531357 1.946361 -85.208504
v 171.531357 -0.000000 -99.807686
v 171.531357 -0.000000 -85.208504
v 171.531357 4.494769 -66.179863
v 171.531357 4.534679 -66.179863
v 171.531357 2.178745 -68.402733
v 171.531357 16.049042 -66.179863
v 171.531357 4.494770 -85.208504
v 171.531357 4.534679 -85.208504
v 171.531357 2.128975 -68.450508
v 171.531357 2.178745 -85.208504
v 171.531357 16.049042 -85.208504
v 171.531357 16.081833 -66.214241
v 171.531357 18.214479 -68.450508
v 171.531357 18.244429 -68.450508
v 171.531357 -0.028593 -68.450508
v 171.531357 2.128975 -85.208504
v 171.531357 16.081833 -85.208504
v 171.531357 18.214479 -85.208504
v 171.531357 18.244429 -85.208504
v 171.531357 20.190790 -68.450508
v 171.531357 -0.028593 -85.208504
v 171.531357 20.190790 -85.208504
v 171.531357 4.534679 -66.101784
v 171.531357 4.494770 -66.101784
v 171.531357 2.178745 -68.324669
v 171.531357 16.049042 -66.101784
v 171.531357 2.128975 -68.372429
v 171.531357 16.081833 -66.136162
v 171.531357 18.214479 -68.372429
v 171.531357 18.244429 -68.372429
v 171.531357 -0.028593 -68.372429
v 171.531357 20.190790 -68.372429
v 170.625748 20.219383 -99.885750
v 170.625748 18.012045 -99.933540
v 170.625748 18.061815 -99.885750
v 170.625748 15.696020 -102.156380
v 170.625748 18.012045 -85.208504
v 170.625748 18.061815 -85.208504
v 170.625748 20.219383 -85.208504
v 170.625748 15.656111 -102.156380
v 170.625748 15.696020 -85.208504
v 170.625748 4.141748 -102.156380
v 170.625748 15.656111 -85.208504
v 170.625748 4.141748 -85.208504
v 170.625748 1.976311 -99.885750
v 170.625748 4.108958 -102.122017
v 170.625748 4.108958 -85.208504
v 170.625748 1.946361 -99.885750
v 170.625748 1.976311 -85.208504
v 170.625748 1.946361 -85.208504
v 170.625748 -0.000000 -99.885750
v 170.625748 -0.000000 -85.208504
v 170.546371 20.219383 -100.789375
v 170.546402 18.061815 -100.789375
v 170.546402 18.012045 -100.837166
v 170.546402 15.696020 -103.060066
v 170.546402 15.656111 -103.060066
v 170.546402 4.141748 -103.060066
v 170.546402 4.108958 -103.025642
v 170.546402 1.976311 -100.789375
v 170.546402 1.946361 -100.789375
v 170.546371 -0.000000 -100.789375
v 170.625748 18.244429 -68.372429
v 170.625748 20.190790 -68.372429
v 170.625748 18.214479 -68.372429
v 170.625748 20.190790 -85.208504
v 170.625748 18.244429 -85.208504
v 170.625748 18.214479 -85.208504
v 170.625748 16.081833 -66.136177
v 170.625748 16.081833 -85.208504
v 170.625748 16.049042 -66.101784
v 170.625748 16.049042 -85.208504
v 170.625748 4.534679 -66.101784
v 170.625748 4.534679 -85.208504
v 170.625748 4.494770 -66.101784
v 170.625748 4.494770 -85.208504
v 170.625748 2.178745 -85.208504
v 170.625748 2.178745 -68.324669
v 170.625748 2.128975 -85.208504
v 170.625748 2.128975 -68.372429
v 170.625748 -0.028593 -68.372429
v 170.625748 -0.028593 -85.208504
v 170.546402 18.244429 -67.468788
v 170.546371 20.190790 -67.468788
v 170.546402 18.214479 -67.468788
v 170.546402 16.081833 -65.232521
v 170.546402 16.049042 -65.198143
v 170.546402 4.534679 -65.198143
v 170.546402 4.494770 -65.198143
v 170.546402 2.178745 -67.421013
v 170.546402 2.128975 -67.468788
v 170.546371 -0.028593 -67.468788
vt 0.000000 0.000000
vt 0.000000 0.006107
vt 1.000000 0.006107
vt 1.000000 0.000000
vt 0.000000 0.000000
vt 0.000000 0.006107
vt 1.000000 0.006107
vt 1.000000 0.000000
vt 0.000000 0.000000
vt 0.000000 0.006107
vt 1.000000 0.006107
vt 1.000000 0.000000
vt 0.000000 0.000000
vt 0.000000 0.006107
vt 1.000000 0.006107
vt 1.000000 0.000000
vt 0.000000 0.000000
vt 0.000000 0.006107
vt 1.000000 0.006107
vt 1.000000 0.000000
vt 0.000000 1.000000
vt 1.000000 1.000000
vt 0.000000 1.000000
vt 1.000000 1.000000
vt 0.000000 1.000000
vt 1.000000 1.000000
vt 0.000000 1.000000
vt 1.000000 1.000000
vt 0.000000 1.000000
vt 1.000000 1.000000
vt 0.000000 0.000000
vt 0.000000 0.006107
vt 1.000000 0.006107
vt 1.000000 0.000000
vt 0.000000 0.000000
vt 0.000000 0.006107
vt 1.000000 0.006107
vt 1.000000 0.000000
vt 0.000000 1.000000
vt 1.000000 1.000000
vt 0.000000 1.000000
vt 1.000000 1.000000
vt 0.000000 0.000000
vt 0.000000 0.006107
vt 1.000000 0.006107
vt 1.000000 0.000000
vt 0.000000 1.000000
vt 1.000000 1.000000
vt 0.000000 0.000000
vt 0.000000 0.006107
vt 1.000000 0.006107
vt 1.000000 0.000000
vt 0.000000 1.000000
vt 1.000000 1.000000
vt 0.000000 0.000000
vt 0.000000 0.006107
vt 1.000000 0.006107
vt 1.000000 0.000000
vt 0.000000 0.000000
vt 0.000000 0.006107
vt 1.000000 0.006107
vt 1.000000 0.000000
vt 0.000000 0.000000
vt 0.000000 0.006107
vt 1.000000 0.006107
vt 1.000000 0.000000
vt 0.000000 1.000000
vt 1.000000 1.000000
vt 0.000000 0.000000
vt 0.000000 0.006107
vt 1.000000 0.006107
vt 1.000000 0.000000
vt 0.000000 1.000000
vt 1.000000 1.000000
vt 0.000000 1.000000
vt 1.000000 1.000000
vt 0.000000 0.000000
vt 0.000000 0.006107
vt 1.000000 0.006107
vt 1.000000 0.000000
vt 0.000000 0.000000
vt 0.000000 0.006107
vt 1.000000 0.006107
vt 1.000000 0.000000
vt 0.000000 0.000000
vt 0.000000 0.006107
vt 1.000000 0.006107
vt 1.000000 0.000000
vt 0.000000 0.000000
vt 0.000000 0.006107
vt 1.000000 0.006107
vt 1.000000 0.000000
vt 0.000000 1.000000
vt 1.000000 1.000000
vt 0.000000 1.000000
vt 1.000000 1.000000
vt 0.000000 1.000000
vt 1.000000 1.000000
vt 0.000000 1.000000
vt 1.000000 1.000000
vt 0.000000 0.000000
vt 0.000000 0.006107
vt 1.000000 0.006107
vt 1.000000 0.000000
vt 0.000000 1.000000
vt 1.000000 1.000000
vt 0.000000 1.000000
vt 1.000000 1.000000
vt 0.125000 0.250000
vt 0.375000 0.250000
vt 0.375000 0.204302
vt 0.125000 0.204302
vt 0.125000 0.203248
vt 0.375000 0.203248
vt 0.375000 0.154194
vt 0.125000 0.154194
vt 0.000000 0.000000
vt 0.000000 1.000000
vt 1.000000 1.000000
vt 1.000000 0.000000
vt 0.000000 0.000000
vt 0.000000 1.000000
vt 1.000000 1.000000
vt 1.000000 0.000000
vt 0.125000 0.153789
vt 0.375000 0.153789
vt 0.000000 0.000000
vt 0.000000 1.000000
vt 1.000000 1.000000
vt 1.000000 0.000000
vt 0.125000 0.037188
vt 0.375000 0.037188
vt 0.000000 0.000000
vt 0.000000 1.000000
vt 1.000000 1.000000
vt 1.000000 0.000000
vt 0.375000 0.036894
vt 0.125000 0.036894
vt 0.000000 0.000000
vt 0.000000 1.000000
vt 1.000000 1.000000
vt 1.000000 0.000000
vt 0.125000 0.017745
vt 0.375000 0.017745
vt 0.000000 0.000000
vt 0.000000 1.000000
vt 1.000000 1.000000
vt 1.000000 0.000000
vt 0.125000 0.017476
vt 0.375000 0.017476
vt 0.000000 0.000000
vt 0.000000 1.000000
vt 1.000000 1.000000
vt 1.000000 0.000000
vt 0.375000 0.000000
vt 0.125000 0.000000
vt 0.000000 0.000000
vt 0.000000 1.000000
vt 1.000000 1.000000
vt 1.000000 0.000000
vt 0.000000 0.000000
vt 0.000000 1.000000
vt 1.000000 1.000000
vt 1.000000 0.000000
vt 0.125000 0.017476
vt 0.375000 0.017476
vt 0.375000 0.000000
vt 0.125000 0.000000
vt 0.125000 0.017745
vt 0.375000 0.017745
vt 0.000000 0.000000
vt 0.000000 1.000000
vt 1.000000 1.000000
vt 1.000000 0.000000
vt 0.000000 0.000000
vt 0.000000 1.000000
vt 1.000000 1.000000
vt 1.000000 0.000000
vt 0.125000 0.036894
vt 0.375000 0.036894
vt 0.000000 0.000000
vt 0.000000 1.000000
vt 1.000000 1.000000
vt 1.000000 0.000000
vt 0.125000 0.037188
vt 0.375000 0.037188
vt 0.000000 0.000000
vt 0.000000 1.000000
vt 1.000000 1.000000
vt 1.000000 0.000000
vt 0.125000 0.153789
vt 0.375000 0.153789
vt 0.000000 0.000000
vt 0.000000 1.000000
vt 1.000000 1.000000
vt 1.000000 0.000000
vt 0.125000 0.154194
vt 0.375000 0.154194
vt 0.000000 0.000000
vt 0.000000 1.000000
vt 1.000000 1.000000
vt 1.000000 0.000000
vt 0.375000 0.203248
vt 0.125000 0.203248
vt 0.000000 0.000000
vt 0.000000 1.000000
vt 1.000000 1.000000
vt 1.000000 0.000000
vt 0.375000 0.204302
vt 0.125000 0.204302
vt 0.000000 0.000000
vt 0.000000 1.000000
vt 1.000000 1.000000
vt 1.000000 0.000000
vt 0.125000 0.250000
vt 0.375000 0.250000
vt 0.000000 0.000000
vt 0.000000 1.000000
vt 1.000000 1.000000
vt 1.000000 0.000000
vn 1.000000 0.000000 0.000000
vn 1.000000 -0.000001 0.000000
vn 1.000000 0.000000 0.000000
vn 1.000000 0.000000 0.000000
vn 1.000000 0.000000 0.000000
vn 1.000000 0.000000 0.000000
vn 1.000000 -0.000003 0.000000
vn 1.000000 0.000000 0.000000
vn 1.000000 -0.000001 0.000000
vn 1.000000 0.000000 0.000000
vn 1.000000 0.000000 0.000000
vn 1.000000 0.000001 0.000000
vn 1.000000 -0.000001 0.000000
vn 1.000000 0.000000 0.000000
vn 1.000000 0.000000 0.000000
vn 1.000000 -0.000002 0.000000
vn 1.000000 -0.000003 0.000000
vn 1.000000 0.000000 0.000000
vn 1.000000 0.000003 0.000000
vn 1.000000 0.000017 0.000000
vn 1.000000 0.000003 0.000000
vn 1.000000 0.000000 0.000000
vn 1.000000 0.000003 0.000000
vn 1.000000 0.000003 0.000000
vn 1.000000 0.000000 0.000000
vn 1.000000 0.000000 0.000000
vn 1.000000 0.000000 0.000000
vn 1.000000 0.000000 0.000000
vn 1.000000 0.000000 0.000000
vn 1.000000 0.000000 0.000000
vn 1.000000 0.000000 0.000000
vn 1.000000 0.000003 0.000000
vn 1.000000 0.000000 0.000000
vn 1.000000 0.000000 0.000000
vn 1.000000 -0.000002 0.000000
vn 1.000000 0.000002 0.000000
vn 1.000000 0.000000 0.000000
vn 1.000000 0.000000 0.000000
vn 1.000000 0.000003 0.000000
vn 1.000000 0.000000 0.000000
vn 1.000000 -0.000008 0.000000
vn 1.000000 -0.000004 0.000000
vn 1.000000 0.000000 0.000000
vn 1.000000 0.000000 0.000000
vn 1.000000 0.000002 0.000000
vn 1.000000 0.000009 0.000000
vn 1.000000 -0.000002 0.000000
vn 1.000000 0.000000 0.000000
vn 1.000000 0.000000 0.000000
vn 1.000000 0.000000 0.000000
vn 1.000000 0.000000 0.000000
vn 1.000000 0.000000 0.000000
vn 1.000000 -0.000003 0.000000
vn 1.000000 -0.000001 0.000000
vn 1.000000 -0.000002 0.000000
vn 1.000000 0.000000 0.000000
vn 1.000000 0.000000 0.000000
vn 1.000000 0.000000 0.000000
vn 1.000000 0.000000 0.000000
vn 1.000000 0.000000 0.000000
vn -0.999987 -0.000000 0.005093
vn -0.996166 -0.000008 0.087488
vn -0.996162 -0.002794 0.087488
vn -0.999988 -0.000057 0.004989
vn -0.999997 -0.001717 0.001794
vn -0.992675 -0.083658 0.087162
vn -0.992897 -0.080968 0.087181
vn -0.999859 -0.011561 0.012190
vn -1.000000 0.000005 0.000000
vn -1.000000 -0.000000 0.000000
vn -1.000000 0.000000 0.000000
vn -0.999990 0.000000 0.004445
vn -0.996168 0.000000 0.087467
vn -1.000000 0.000005 0.000000
vn -0.999990 0.000020 0.004457
vn -0.996167 0.000127 0.087467
vn -1.000000 0.000000 0.000000
vn -0.992000 0.091365 0.087106
vn -0.999828 0.013404 0.012792
vn -1.000000 -0.000001 0.000000
vn -0.999997 0.001648 0.001618
vn -0.992077 0.090524 0.087113
vn -1.000000 -0.000006 0.000000
vn -0.999987 0.000000 0.005093
vn -0.996166 0.000009 0.087488
vn -1.000000 -0.000002 0.000000
vn -0.996166 0.000009 0.087488
vn -0.999987 0.000001 0.005093
vn -1.000000 0.000000 0.000000
vn -1.000000 0.000000 0.000000
vn -0.999990 -0.000000 -0.004474
vn -0.996166 -0.000009 -0.087486
vn -0.996166 -0.000009 -0.087486
vn -0.999990 -0.000000 -0.004474
vn -0.999998 -0.001451 -0.001427
vn -0.992078 -0.090514 -0.087111
vn -1.000000 0.000000 0.000000
vn -1.000000 0.000000 0.000000
vn -1.000000 0.000003 0.000000
vn -0.999862 -0.012015 -0.011458
vn -0.992004 -0.091328 -0.087104
vn -1.000000 0.000003 0.000000
vn -0.999992 -0.000018 -0.003976
vn -0.996167 -0.000127 -0.087470
vn -1.000000 -0.000000 0.000000
vn -0.999992 0.000000 -0.003965
vn -0.996167 0.000000 -0.087470
vn -1.000000 0.000000 0.000000
vn -0.999887 0.010354 -0.010912
vn -0.992896 0.080969 -0.087183
vn -1.000000 0.000001 0.000000
vn -0.992675 0.083659 -0.087163
vn -0.999998 0.001519 -0.001583
vn -1.000000 -0.000002 0.000000
vn -0.996162 0.002794 -0.087486
vn -0.999990 0.000044 -0.004381
vn -1.000000 -0.000004 0.000000
vn -0.999990 0.000000 -0.004474
vn -0.996166 0.000008 -0.087487
vn -1.000000 0.000000 0.000000
s 1
g polySurface2190
usemtl initialShadingGroup
f 2/1/1 7/2/2 8/3/3 1/4/4
f 3/5/5 9/6/6 10/7/7 4/8/8
f 4/9/8 10/10/7 11/11/9 5/12/10
f 5/13/10 11/14/9 7/15/2 2/16/1
f 1/17/4 8/18/3 12/19/11 6/20/12
f 7/2/2 14/21/13 15/22/14 8/3/3
f 9/6/6 17/23/15 18/24/16 10/7/7
f 10/10/7 18/25/16 19/26/17 11/11/9
f 11/14/9 19/27/17 14/28/13 7/15/2
f 8/18/3 15/29/14 20/30/18 12/19/11
f 6/31/12 12/32/11 21/33/19 13/34/20
f 13/35/20 21/36/19 22/37/21 16/38/22
f 12/32/11 20/39/18 24/40/23 21/33/19
f 21/36/19 24/41/23 25/42/24 22/37/21
f 16/43/22 22/44/21 26/45/25 23/46/26
f 22/44/21 25/47/24 28/48/27 26/45/25
f 23/49/26 26/50/25 29/51/28 27/52/29
f 26/50/25 28/53/27 30/54/30 29/51/28
s 3
f 52/55/31 31/56/32 32/57/33 51/58/34
f 53/59/35 33/60/36 31/61/32 52/62/31
f 51/63/34 32/64/33 34/65/37 54/66/38
f 31/56/32 35/67/39 36/68/40 32/57/33
f 55/69/41 37/70/42 33/71/36 53/72/35
f 33/60/36 38/73/43 35/74/39 31/61/32
f 32/64/33 36/75/40 39/76/44 34/65/37
f 54/77/38 34/78/37 40/79/45 56/80/46
f 56/81/46 40/82/45 41/83/47 57/84/48
f 57/85/48 41/86/47 42/87/49 58/88/50
f 59/89/51 43/90/52 37/91/42 55/92/41
f 37/70/42 44/93/53 38/94/43 33/71/36
f 34/78/37 39/95/44 45/96/54 40/79/45
f 40/82/45 45/97/54 46/98/55 41/83/47
f 41/86/47 46/99/55 47/100/56 42/87/49
f 58/101/50 42/102/49 48/103/57 60/104/58
f 43/90/52 49/105/59 44/106/53 37/91/42
f 42/102/49 47/107/56 50/108/60 48/103/57
s 4
f 61/109/61 81/110/62 82/111/63 63/112/64
f 62/113/65 63/112/64 82/111/63 83/114/66
f 83/114/66 84/115/67 64/116/68 62/113/65
f 62/117/65 65/118/69 66/119/70 63/120/64
f 63/121/64 66/122/70 67/123/71 61/124/61
f 68/125/72 64/116/68 84/115/67 85/126/73
f 64/127/68 69/128/74 65/129/69 62/130/65
f 70/131/75 68/125/72 85/126/73 86/132/76
f 68/133/72 71/134/77 69/135/74 64/136/68
f 70/131/75 86/132/76 87/137/78 74/138/79
f 70/139/75 72/140/80 71/141/77 68/142/72
f 73/143/81 74/138/79 87/137/78 88/144/82
f 74/145/79 75/146/83 72/147/80 70/148/75
f 76/149/84 73/143/81 88/144/82 89/150/85
f 73/151/81 77/152/86 75/153/83 74/154/79
f 76/149/84 89/150/85 90/155/87 79/156/88
f 76/157/84 78/158/89 77/159/86 73/160/81
f 79/161/88 80/162/90 78/163/89 76/164/84
s 5
f 91/165/91 111/166/92 112/167/93 92/168/94
f 91/165/91 93/169/95 113/170/96 111/166/92
f 92/171/94 94/172/97 95/173/98 91/174/91
f 91/175/91 95/176/98 96/177/99 93/178/95
f 113/170/96 93/169/95 97/179/100 114/180/101
f 93/181/95 96/182/99 98/183/102 97/184/100
f 114/180/101 97/179/100 99/185/103 115/186/104
f 97/187/100 98/188/102 100/189/105 99/190/103
f 99/185/103 101/191/106 116/192/107 115/186/104
f 99/193/103 100/194/105 102/195/108 101/196/106
f 101/191/106 103/197/109 117/198/110 116/192/107
f 101/199/106 102/200/108 104/201/111 103/202/109
f 118/203/112 117/198/110 103/197/109 106/204/113
f 103/205/109 104/206/111 105/207/114 106/208/113
f 119/209/115 118/203/112 106/204/113 108/210/116
f 106/211/113 105/212/114 107/213/117 108/214/116
f 109/215/118 120/216/119 119/209/115 108/210/116
f 108/217/116 107/218/117 110/219/120 109/220/118
