# This file uses centimeters as units for non-parametric coordinates.

mtllib pared-2.mtl
g default
v 219.385147 2.128975 -85.208504
v 219.385147 -0.028593 -85.208504
v 219.385147 2.178745 -85.208504
v 219.385147 4.494770 -85.208504
v 219.385147 4.534679 -85.208504
v 219.385147 16.049042 -85.208504
v 219.385147 16.081833 -85.208504
v 219.385147 18.214479 -85.208504
v 219.385147 18.244429 -85.208504
v 219.385147 20.190790 -85.208504
v 219.385147 -0.028593 -68.467064
v 219.385147 2.128975 -68.467064
v 219.385147 2.178745 -68.419289
v 219.385147 4.494770 -66.196419
v 219.385147 4.534679 -66.196419
v 219.385147 16.049042 -66.196419
v 219.385147 16.081833 -66.230797
v 219.385147 18.214479 -68.467064
v 219.385147 18.244429 -68.467064
v 219.385147 20.190790 -68.467064
v 219.385147 18.061815 -99.885750
v 219.385147 20.219383 -99.885750
v 219.385147 18.012045 -99.933540
v 219.385147 18.061815 -99.791145
v 219.385147 20.219383 -99.791145
v 219.385147 15.696020 -102.156380
v 219.385147 18.012045 -99.838875
v 219.385147 18.061815 -85.208504
v 219.385147 20.219383 -85.208504
v 219.385147 15.656111 -102.156380
v 219.385147 15.696020 -102.061775
v 219.385147 18.012045 -85.208504
v 219.385147 4.141748 -102.156380
v 219.385147 15.656111 -102.061775
v 219.385147 15.696020 -85.208504
v 219.385147 4.108958 -102.122017
v 219.385147 4.141748 -102.061775
v 219.385147 15.656111 -85.208504
v 219.385147 1.976311 -99.885750
v 219.385147 4.108958 -102.027412
v 219.385147 4.141748 -85.208504
v 219.385147 1.946361 -99.885750
v 219.385147 1.976311 -99.791145
v 219.385147 4.108958 -85.208504
v 219.385147 0.000000 -99.885750
v 219.385147 1.946361 -99.791145
v 219.385147 1.976311 -85.208504
v 219.385147 0.000000 -99.791145
v 219.385147 1.946361 -85.208504
v 219.385147 0.000000 -85.208504
v 220.142441 18.244429 -68.372429
v 220.142441 20.190790 -68.372429
v 220.142441 18.214479 -68.372429
v 220.142441 18.244429 -85.208504
v 220.142441 20.190790 -85.208504
v 220.142441 16.081833 -66.136177
v 220.142441 18.214479 -85.208504
v 220.142441 16.049042 -66.101784
v 220.142441 16.081833 -85.208504
v 220.142441 4.534679 -66.101784
v 220.142441 16.049042 -85.208504
v 220.142441 4.494770 -66.101784
v 220.142441 4.534679 -85.208504
v 220.142441 2.178745 -68.324669
v 220.142441 4.494770 -85.208504
v 220.142441 2.128975 -68.372429
v 220.142441 2.178745 -85.208504
v 220.142441 -0.028593 -68.372429
v 220.142441 2.128975 -85.208504
v 220.142441 -0.028593 -85.208504
v 220.142441 20.190790 -67.468788
v 220.142441 18.244429 -67.468788
v 220.142441 18.214479 -67.468788
v 220.142441 16.081833 -65.232521
v 220.142441 16.049042 -65.198143
v 220.142441 4.534679 -65.198143
v 220.142441 4.494770 -65.198143
v 220.142441 2.178745 -67.421013
v 220.142441 2.128975 -67.468788
v 220.142441 -0.028593 -67.468788
v 220.142471 20.219383 -99.885750
v 220.142471 18.061815 -99.885750
v 220.142471 18.012045 -99.933540
v 220.142471 20.219383 -85.208504
v 220.142471 18.061815 -85.208504
v 220.142471 15.696020 -102.156380
v 220.142471 18.012045 -85.208504
v 220.142471 15.656111 -102.156380
v 220.142471 15.696020 -85.208504
v 220.142471 4.141748 -102.156380
v 220.142471 15.656111 -85.208504
v 220.142471 4.108958 -102.122017
v 220.142471 4.141748 -85.208504
v 220.142471 1.976311 -99.885750
v 220.142471 4.108958 -85.208504
v 220.142471 1.946361 -99.885750
v 220.142471 1.976311 -85.208504
v 220.142471 -0.000000 -99.885750
v 220.142471 1.946361 -85.208504
v 220.142471 -0.000000 -85.208504
v 220.142471 18.061815 -100.789375
v 220.142471 20.219383 -100.789375
v 220.142471 18.012045 -100.837166
v 220.142471 15.696020 -103.060066
v 220.142471 15.656111 -103.060066
v 220.142471 4.141748 -103.060066
v 220.142471 4.108958 -103.025642
v 220.142471 1.976311 -100.789375
v 220.142471 1.946361 -100.789375
v 220.142471 -0.000000 -100.789375
vt 0.000000 0.006720
vt 0.000000 1.000000
vt 1.000000 1.000000
vt 1.000000 0.006720
vt 0.000000 0.006720
vt 0.000000 1.000000
vt 1.000000 1.000000
vt 1.000000 0.006720
vt 0.000000 0.006720
vt 0.000000 1.000000
vt 1.000000 1.000000
vt 1.000000 0.006720
vt 0.000000 0.006720
vt 0.000000 1.000000
vt 1.000000 1.000000
vt 1.000000 0.006720
vt 0.000000 0.006720
vt 0.000000 1.000000
vt 1.000000 1.000000
vt 1.000000 0.006720
vt 0.000000 0.006720
vt 0.000000 1.000000
vt 1.000000 1.000000
vt 1.000000 0.006720
vt 0.000000 0.006720
vt 0.000000 1.000000
vt 1.000000 1.000000
vt 1.000000 0.006720
vt 0.000000 0.006720
vt 0.000000 1.000000
vt 1.000000 1.000000
vt 1.000000 0.006720
vt 0.000000 0.006720
vt 0.000000 1.000000
vt 1.000000 1.000000
vt 1.000000 0.006720
vt 0.000000 0.000000
vt 0.000000 0.006720
vt 1.000000 0.006720
vt 1.000000 0.000000
vt 0.000000 0.000000
vt 0.000000 0.006720
vt 1.000000 0.006720
vt 1.000000 0.000000
vt 0.000000 1.000000
vt 1.000000 1.000000
vt 0.000000 0.000000
vt 0.000000 0.006720
vt 1.000000 0.006720
vt 1.000000 0.000000
vt 0.000000 1.000000
vt 1.000000 1.000000
vt 0.000000 0.000000
vt 0.000000 0.006720
vt 1.000000 0.006720
vt 1.000000 0.000000
vt 0.000000 1.000000
vt 1.000000 1.000000
vt 0.000000 0.000000
vt 0.000000 0.006720
vt 1.000000 0.006720
vt 1.000000 0.000000
vt 0.000000 1.000000
vt 1.000000 1.000000
vt 0.000000 0.000000
vt 0.000000 0.006720
vt 1.000000 0.006720
vt 1.000000 0.000000
vt 0.000000 1.000000
vt 1.000000 1.000000
vt 0.000000 0.000000
vt 0.000000 0.006720
vt 1.000000 0.006720
vt 1.000000 0.000000
vt 0.000000 1.000000
vt 1.000000 1.000000
vt 0.000000 0.000000
vt 0.000000 0.006720
vt 1.000000 0.006720
vt 1.000000 0.000000
vt 0.000000 1.000000
vt 1.000000 1.000000
vt 0.000000 0.000000
vt 0.000000 0.006720
vt 1.000000 0.006720
vt 1.000000 0.000000
vt 0.000000 1.000000
vt 1.000000 1.000000
vt 0.000000 1.000000
vt 1.000000 1.000000
vt 0.625000 0.000000
vt 0.625000 0.017476
vt 0.875000 0.017476
vt 0.875000 0.000000
vt 0.625000 0.017745
vt 0.875000 0.017745
vt 0.000000 0.000000
vt 0.000000 1.000000
vt 1.000000 1.000000
vt 1.000000 0.000000
vt 0.625000 0.036894
vt 0.875000 0.036894
vt 0.000000 0.000000
vt 0.000000 1.000000
vt 1.000000 1.000000
vt 1.000000 0.000000
vt 0.625000 0.037188
vt 0.875000 0.037188
vt 0.000000 0.000000
vt 0.000000 1.000000
vt 1.000000 1.000000
vt 1.000000 0.000000
vt 0.625000 0.153789
vt 0.875000 0.153789
vt 0.002436 0.000000
vt 0.000000 0.001910
vt 0.997564 0.001910
vt 1.000000 0.000000
vt 0.625000 0.154194
vt 0.875000 0.154194
vt 0.000000 0.000000
vt 0.000000 1.000000
vt 1.000000 1.000000
vt 1.000000 0.000000
vt 0.625000 0.203248
vt 0.875000 0.203248
vt 0.000000 0.000000
vt 0.000000 1.000000
vt 1.000000 1.000000
vt 1.000000 0.000000
vt 0.625000 0.204302
vt 0.875000 0.204302
vt 0.000000 0.000000
vt 0.000000 1.000000
vt 1.000000 1.000000
vt 1.000000 0.000000
vt 0.625000 0.250000
vt 0.875000 0.250000
vt 0.000000 0.000000
vt 0.000000 1.000000
vt 1.000000 1.000000
vt 1.000000 0.000000
vt 0.000000 0.000000
vt 0.000000 1.000000
vt 1.000000 1.000000
vt 1.000000 0.000000
vt 0.625000 0.204302
vt 0.625000 0.250000
vt 0.875000 0.250000
vt 0.875000 0.204302
vt 0.625000 0.203248
vt 0.875000 0.203248
vt 0.000000 0.000000
vt 0.000000 1.000000
vt 1.000000 1.000000
vt 1.000000 0.000000
vt 0.625000 0.154194
vt 0.875000 0.154194
vt 0.000000 0.000000
vt 0.000000 1.000000
vt 1.000000 1.000000
vt 1.000000 0.000000
vt 0.625000 0.153789
vt 0.875000 0.153789
vt 0.000000 0.000000
vt 0.000000 1.000000
vt 1.000000 1.000000
vt 1.000000 0.000000
vt 0.625000 0.037188
vt 0.875000 0.037188
vt 0.000000 0.000000
vt 0.000000 1.000000
vt 1.000000 1.000000
vt 1.000000 0.000000
vt 0.625000 0.036894
vt 0.875000 0.036894
vt 0.000000 0.000000
vt 0.000000 1.000000
vt 1.000000 1.000000
vt 1.000000 0.000000
vt 0.625000 0.017745
vt 0.875000 0.017745
vt 0.002436 0.000000
vt 0.000000 0.001910
vt 0.997564 0.001910
vt 1.000000 0.000000
vt 0.625000 0.017476
vt 0.875000 0.017476
vt 0.000000 0.000000
vt 0.000000 1.000000
vt 1.000000 1.000000
vt 1.000000 0.000000
vt 0.625000 0.000000
vt 0.875000 0.000000
vt 0.000000 0.000000
vt 0.000000 1.000000
vt 1.000000 1.000000
vt 1.000000 0.000000
vt 0.000000 0.000000
vt 0.000000 1.000000
vt 1.000000 1.000000
vt 1.000000 0.000000
vn -1.000000 0.000001 0.000000
vn -1.000000 0.000000 0.000000
vn -1.000000 0.000000 0.000000
vn -1.000000 0.000000 0.000000
vn -1.000000 0.000004 0.000000
vn -1.000000 0.000004 0.000000
vn -1.000000 0.000004 0.000000
vn -1.000000 0.000004 0.000000
vn -1.000000 0.000000 0.000000
vn -1.000000 0.000000 0.000000
vn -1.000000 0.000000 0.000000
vn -1.000000 0.000000 0.000000
vn -1.000000 -0.000002 0.000000
vn -1.000000 -0.000004 0.000000
vn -1.000000 -0.000006 0.000000
vn -1.000000 -0.000006 0.000000
vn -1.000000 0.000000 0.000000
vn -1.000000 0.000000 0.000000
vn -1.000000 0.000000 0.000000
vn -1.000000 0.000000 0.000000
vn -1.000000 -0.000013 0.000000
vn -1.000000 0.000009 0.000000
vn -1.000000 0.000000 0.000000
vn -1.000000 0.000000 0.000000
vn -1.000000 -0.000003 0.000000
vn -1.000000 0.000000 0.000000
vn -1.000000 0.000006 0.000000
vn -1.000000 0.000000 0.000000
vn -1.000000 0.000000 0.000000
vn -1.000000 -0.000002 0.000000
vn -1.000000 0.000004 0.000000
vn -1.000000 0.000000 0.000000
vn -1.000000 0.000000 0.000000
vn -1.000000 -0.000002 0.000000
vn -1.000000 0.000000 0.000000
vn -1.000000 -0.000000 0.000000
vn -1.000000 0.000000 0.000000
vn -1.000000 0.000007 0.000000
vn -1.000000 -0.000011 0.000000
vn -1.000000 -0.000001 0.000000
vn -1.000000 0.000000 0.000000
vn -1.000000 -0.000001 0.000000
vn -1.000000 -0.000004 0.000000
vn -1.000000 0.000000 0.000000
vn -1.000000 0.000000 0.000000
vn -1.000000 -0.000001 0.000000
vn -1.000000 0.000000 0.000000
vn -1.000000 0.000000 0.000000
vn -1.000000 0.000000 0.000000
vn -1.000000 0.000000 0.000000
vn 1.000000 0.000000 0.000000
vn 1.000000 0.000000 0.000000
vn 1.000000 0.000000 0.000000
vn 1.000000 0.000000 0.000000
vn 1.000000 0.000008 0.000000
vn 1.000000 -0.000006 0.000000
vn 1.000000 0.000000 0.000000
vn 1.000000 0.000000 0.000000
vn 1.000000 -0.000016 0.000000
vn 1.000000 -0.000005 0.000000
vn 1.000000 -0.000006 0.000000
vn 1.000000 -0.000001 0.000000
vn 1.000000 -0.000000 0.000000
vn 1.000000 -0.000006 0.000000
vn 1.000000 0.000000 0.000000
vn 1.000000 0.000000 0.000000
vn 1.000000 0.000780 0.000000
vn 1.000000 0.000780 0.000000
vn 1.000000 0.000780 0.000000
vn 1.000000 0.000780 0.000000
vn 1.000000 -0.000007 0.000000
vn 1.000000 -0.000005 0.000000
vn 1.000000 0.000000 0.000000
vn 1.000000 0.000000 0.000000
vn 1.000000 -0.000010 0.000000
vn 1.000000 -0.000005 0.000000
vn 1.000000 -0.000005 0.000000
vn 1.000000 -0.000011 0.000000
vn 1.000000 0.000003 0.000000
vn 1.000000 -0.000003 0.000000
vn 1.000000 0.000000 0.000000
vn 1.000000 0.000000 0.000000
vn 1.000000 0.000002 0.000000
vn 1.000000 0.000000 0.000000
vn 1.000000 0.000000 0.000000
vn 1.000000 0.000000 0.000000
vn 1.000000 0.000000 0.000000
vn 1.000000 0.000001 0.000000
vn 1.000000 0.000000 0.000000
vn 1.000000 -0.000001 0.000000
vn 1.000000 0.000000 0.000000
vn 1.000000 0.000001 0.000000
vn 1.000000 0.000000 0.000000
vn 1.000000 -0.000001 0.000000
vn 1.000000 -0.000000 0.000000
vn 1.000000 0.000000 0.000000
vn 1.000000 0.000000 0.000000
vn 1.000000 -0.000001 0.000000
vn 1.000000 -0.000001 0.000000
vn 1.000000 -0.000000 0.000000
vn 1.000000 0.000000 0.000000
vn 1.000000 -0.000016 0.000000
vn 1.000000 0.000001 0.000000
vn 1.000000 0.000000 0.000000
vn 1.000000 0.000008 0.000000
vn 1.000000 0.000000 0.000000
vn 1.000000 0.000000 0.000000
vn 1.000000 0.000000 0.000000
vn 1.000000 0.000000 0.000000
vn 1.000000 0.000000 0.000000
vn 1.000000 0.000000 0.000000
vn 1.000000 0.000000 0.000000
vn 1.000000 0.000000 0.000000
vn 1.000000 0.000000 0.000000
vn 1.000000 0.000000 0.000000
vn 1.000000 0.000000 0.000000
vn 1.000000 0.000000 0.000000
vn 1.000000 0.000000 0.000000
s 1
g polySurface2181
usemtl initialShadingGroup
f 12/1/1 1/2/2 2/3/3 11/4/4
f 13/5/5 3/6/6 1/7/2 12/8/1
f 14/9/7 4/10/8 3/11/6 13/12/5
f 15/13/9 5/14/10 4/15/8 14/16/7
f 16/17/11 6/18/12 5/19/10 15/20/9
f 17/21/13 7/22/14 6/23/12 16/24/11
f 18/25/15 8/26/16 7/27/14 17/28/13
f 19/29/17 9/30/18 8/31/16 18/32/15
f 20/33/19 10/34/20 9/35/18 19/36/17
s 2
f 21/37/21 24/38/22 25/39/23 22/40/24
f 23/41/25 27/42/26 24/43/22 21/44/21
f 24/38/22 28/45/27 29/46/28 25/39/23
f 26/47/29 31/48/30 27/49/26 23/50/25
f 27/42/26 32/51/31 28/52/27 24/43/22
f 30/53/32 34/54/33 31/55/30 26/56/29
f 31/48/30 35/57/34 32/58/31 27/49/26
f 33/59/35 37/60/36 34/61/33 30/62/32
f 34/54/33 38/63/37 35/64/34 31/55/30
f 36/65/38 40/66/39 37/67/36 33/68/35
f 37/60/36 41/69/40 38/70/37 34/61/33
f 39/71/41 43/72/42 40/73/39 36/74/38
f 40/66/39 44/75/43 41/76/40 37/67/36
f 42/77/44 46/78/45 43/79/42 39/80/41
f 43/72/42 47/81/46 44/82/43 40/73/39
f 45/83/47 48/84/48 46/85/45 42/86/44
f 46/78/45 49/87/49 47/88/46 43/79/42
f 48/84/48 50/89/50 49/90/49 46/85/45
s 3
f 71/91/51 72/92/52 51/93/53 52/94/54
f 72/92/52 73/95/55 53/96/56 51/93/53
f 51/97/53 54/98/57 55/99/58 52/100/54
f 73/95/55 74/101/59 56/102/60 53/96/56
f 53/103/56 57/104/61 54/105/57 51/106/53
f 74/101/59 75/107/62 58/108/63 56/102/60
f 56/109/60 59/110/64 57/111/61 53/112/56
f 75/107/62 76/113/65 60/114/66 58/108/63
s off
f 56/115/67 58/116/68 61/117/69 59/118/70
s 3
f 76/113/65 77/119/71 62/120/72 60/114/66
f 60/121/66 63/122/73 61/123/74 58/124/63
f 77/119/71 78/125/75 64/126/76 62/120/72
f 62/127/72 65/128/77 63/129/73 60/130/66
f 78/125/75 79/131/78 66/132/79 64/126/76
f 64/133/76 67/134/80 65/135/77 62/136/72
f 79/131/78 80/137/81 68/138/82 66/132/79
f 66/139/79 69/140/83 67/141/80 64/142/76
f 68/143/82 70/144/84 69/145/83 66/146/79
s 4
f 101/147/85 102/148/86 81/149/87 82/150/88
f 103/151/89 101/147/85 82/150/88 83/152/90
f 81/153/87 84/154/91 85/155/92 82/156/88
f 104/157/93 103/151/89 83/152/90 86/158/94
f 82/159/88 85/160/92 87/161/95 83/162/90
f 105/163/96 104/157/93 86/158/94 88/164/97
f 83/165/90 87/166/95 89/167/98 86/168/94
f 106/169/99 105/163/96 88/164/97 90/170/100
f 86/171/94 89/172/98 91/173/101 88/174/97
f 107/175/102 106/169/99 90/170/100 92/176/103
f 88/177/97 91/178/101 93/179/104 90/180/100
f 108/181/105 107/175/102 92/176/103 94/182/106
s off
f 92/183/107 90/184/108 93/185/109 95/186/110
s 4
f 109/187/111 108/181/105 94/182/106 96/188/112
f 92/189/103 95/190/113 97/191/114 94/192/106
f 110/193/115 109/187/111 96/188/112 98/194/116
f 94/195/106 97/196/114 99/197/117 96/198/112
f 96/199/112 99/200/117 100/201/118 98/202/116
