# This file uses centimeters as units for non-parametric coordinates.

mtllib suelo.mtl
g default
v 199.676254 -0.000000 -100.789375
v 175.862427 -0.000000 -100.789375
v 180.459061 -0.028593 -64.965263
v 180.459061 -0.028593 -66.790802
v 181.983810 -0.028593 -66.790802
v 189.610764 -0.028593 -66.790802
v 191.135513 -0.028593 -66.790802
v 191.135513 -0.028593 -64.914452
v 180.457031 -0.028593 -64.538498
v 191.133484 -0.028593 -64.487686
v 197.066788 -0.028593 -67.468788
v 220.092239 -0.028593 -67.468788
v 220.092239 -0.000000 -100.789375
v 174.749069 -0.028593 -67.468788
v 170.546371 -0.000000 -100.789375
v 170.546371 -0.028593 -67.468788
v 174.807724 -0.028593 -65.006584
v 197.013931 -0.028593 -64.869423
vt 0.705731 0.000000
vt 0.705731 0.546791
vt 1.000000 0.546791
vt 1.000000 0.000000
vt 0.318809 0.000000
vt 0.318809 0.546791
vt 0.000000 0.000000
vt 0.000000 0.546791
vt 0.000000 0.000000
vt 0.000000 1.000000
vt 0.301246 1.000000
vt 0.301879 0.270798
vt 0.354638 0.270020
vt 0.618540 0.266193
vt 0.671298 0.265442
vt 0.671711 1.000000
vt 1.000000 1.000000
vt 1.000000 0.000000
vt 0.000000 0.000000
vt 0.170987 0.000000
vt 0.175747 1.000000
vt 0.000000 1.000000
vt 0.000000 0.000000
vt 1.000000 0.000000
vt 1.000000 1.000000
vt 0.000000 1.000000
vn -0.000000 1.000000 0.000858
vn 0.000000 1.000000 0.000838
vn -0.000000 1.000000 0.000858
vn -0.000000 1.000000 0.000858
vn -0.000000 1.000000 0.000858
vn -0.000000 1.000000 0.000826
vn -0.000000 1.000000 0.000858
vn -0.000000 1.000000 0.000858
vn 0.000000 1.000000 -0.000000
vn 0.000000 1.000000 -0.000000
vn 0.000000 1.000000 -0.000000
vn 0.000000 1.000000 -0.000000
vn 0.000000 1.000000 -0.000000
vn 0.000000 1.000000 -0.000000
vn 0.000000 1.000000 -0.000000
vn 0.000000 1.000000 -0.000000
vn 0.000000 1.000000 -0.000000
vn 0.000000 1.000000 -0.000000
vn 0.000000 1.000000 -0.000000
vn 0.000000 1.000000 -0.000000
vn 0.000000 1.000000 -0.000000
vn 0.000000 1.000000 -0.000000
s 1
g polySurface2177 polySurface2175 polySurface2172
usemtl initialShadingGroup
f 1/1/1 11/2/2 12/3/3 13/4/4
f 2/5/5 14/6/6 11/2/2 1/1/1
f 15/7/7 16/8/8 14/6/6 2/5/5
f 14/9/6 17/10/9 3/11/10 4/12/11 5/13/12 6/14/13 7/15/14 8/16/15 18/17/16 11/18/2
s 2
f 4/19/17 3/20/18 8/21/19 7/22/20
f 8/23/19 3/24/18 9/25/21 10/26/22
